# xmcd CD database file
#
# Track frame offsets:
#	150
#	12815
#	32960
#	49185
#	68225
#	75665
#	94242
#	115302
#	139170
#	158615
#	167950
#	186165
#	205485
#	226635
#	246185
#	254425
#	273675
#	294190
#	317115
#	339577
#
# Disc length: 4766 seconds
#
# Revision: 0
# Processed by: cddbd v1.5PL3 Copyright (c) Steve Scherf et al.
# Submitted via: CDex 1.50
#
DISCID=22129c14
DTITLE=Mary J. Blige - Love and Life
DYEAR=2003
DGENRE=Hip-Hop
TTITLE0=Love and Life Intro featuring Jay Z and P.Diddy
TTITLE1=Don't Go
TTITLE2=When We
TTITLE3=Not Today featuring Eve
TTITLE4=Finally Made It (Interlude)
TTITLE5=Ooh!
TTITLE6=Let Me Be The One featuring 50 Cent
TTITLE7=Love @ 1st Sight featuring Method Man
TTITLE8=Willing and Waiting
TTITLE9=Free (Interlude)
TTITLE10=Friends
TTITLE11=Press On
TTITLE12=Feel Like Making Love
TTITLE13=It's A Wrap
TTITLE14=Message In Our Music (Interlude)
TTITLE15=All My Love
TTITLE16=Special Part Of Me
TTITLE17=Ultimate Relation
TTITLE18=Happy Endings
TTITLE19=If I Don't Love You This Way
EXTD=YEAR: 2003
EXTT0=
EXTT1=
EXTT2=
EXTT3=
EXTT4=
EXTT5=
EXTT6=
EXTT7=
EXTT8=
EXTT9=
EXTT10=
EXTT11=
EXTT12=
EXTT13=
EXTT14=
EXTT15=
EXTT16=
EXTT17=
EXTT18=
EXTT19=
PLAYORDER=
